<svg width="2500" height="2500" viewBox="0 0 2500 2500" fill="none" xmlns="http://www.w3.org/2000/svg">
<rect width="2500" height="2500" rx="472" fill="white"/>
<path d="M1704.68 697.786C1670.86 692.767 1644.59 680.218 1619.91 656.947C1581.52 621.126 1564.84 578.461 1568.49 525.985C1570.09 504.539 1574.89 481.951 1579.23 477.388C1580.37 476.248 1581.29 473.966 1581.29 472.597C1581.29 471 1584.94 463.471 1589.29 456.17C1610.99 419.209 1640.93 395.252 1681.83 382.476C1696.46 377.913 1703.77 377 1732.11 377C1771.41 377 1791.97 381.107 1816.43 393.655C1853.67 412.82 1880.64 444.534 1894.35 485.374C1900.52 503.854 1903.03 545.151 1899.15 569.563C1889.78 629.112 1844.99 677.709 1784.89 693.223C1765.47 698.471 1724.56 700.524 1704.68 697.786ZM1751.76 609.262C1784.21 598.539 1808.66 567.282 1808.43 537.393C1808.2 512.068 1790.38 486.058 1764.1 472.597C1753.58 467.121 1748.79 465.981 1734.39 465.981C1719.99 465.981 1715.2 467.121 1703.77 472.825C1679.09 485.146 1660.81 513.437 1660.35 538.99C1660.12 566.597 1685.49 598.539 1716.11 609.262C1729.59 613.825 1738.05 614.054 1751.76 609.262Z" fill="black"/>
<path d="M739.684 697.786C705.864 692.767 679.586 680.218 654.907 656.947C616.517 621.126 599.836 578.461 603.492 525.985C605.092 504.539 609.89 481.951 614.232 477.388C615.374 476.248 616.288 473.966 616.288 472.597C616.288 471 619.945 463.471 624.286 456.17C645.995 419.209 675.93 395.252 716.833 382.476C731.457 377.913 738.77 377 767.105 377C806.409 377 826.975 381.107 851.425 393.655C888.672 412.82 915.636 444.534 929.347 485.374C935.517 503.854 938.03 545.151 934.146 569.563C924.777 629.112 879.989 677.709 819.891 693.223C800.467 698.471 759.564 700.524 739.684 697.786ZM786.757 609.262C819.205 598.539 843.656 567.282 843.427 537.393C843.199 512.068 825.375 486.058 799.096 472.597C788.585 467.121 783.786 465.981 769.39 465.981C754.994 465.981 750.195 467.121 738.77 472.825C714.091 485.146 695.81 513.437 695.353 538.99C695.124 566.597 720.489 598.539 751.109 609.262C764.591 613.825 773.046 614.054 786.757 609.262Z" fill="black"/>
<path d="M840 525H1657L1655.5 547.5H856.5L840 525Z" fill="black"/>
<path d="M1241 717V352.5L1263.5 348V722.5L1241 717Z" fill="black"/>
<path d="M1222.27 970.79C1188.56 965.786 1162.36 953.277 1137.75 930.077C1099.48 894.368 1082.85 851.836 1086.49 799.523C1088.09 778.143 1092.87 755.626 1097.2 751.077C1098.34 749.939 1099.25 747.665 1099.25 746.3C1099.25 744.708 1102.89 737.202 1107.22 729.924C1128.87 693.078 1158.71 669.196 1199.49 656.459C1214.07 651.91 1221.36 651 1249.61 651C1288.8 651 1309.3 655.094 1333.68 667.604C1370.81 686.709 1397.7 718.324 1411.37 759.037C1417.52 777.46 1420.02 818.628 1416.15 842.965C1406.81 902.329 1362.16 950.775 1302.24 966.241C1282.87 971.473 1242.09 973.52 1222.27 970.79ZM1269.2 882.541C1301.56 871.851 1325.93 840.691 1325.71 810.895C1325.48 785.649 1307.71 759.72 1281.51 746.3C1271.03 740.842 1266.24 739.704 1251.89 739.704C1237.54 739.704 1232.75 740.842 1221.36 746.528C1196.76 758.81 1178.53 787.013 1178.08 812.487C1177.85 840.008 1203.14 871.851 1233.66 882.541C1247.11 887.09 1255.54 887.317 1269.2 882.541Z" fill="black"/>
<path d="M951.259 1324.18C948.061 1321.45 873.147 1288.89 793.664 1255.42C757.349 1240.17 717.151 1223.09 704.589 1217.63C692.027 1212.16 650.002 1194.4 610.945 1178.24L540.142 1149.09L539.457 1109.93L539 1071H547.222C555.673 1071 580.112 1080.11 646.347 1108.57C665.761 1116.99 726.058 1142.04 779.96 1164.35C834.091 1186.66 892.56 1211.25 910.147 1218.99C927.734 1226.5 948.518 1235.61 956.284 1239.03C964.278 1242.44 971.13 1246.31 971.586 1247.91C972.271 1249.27 972.043 1267.49 971.358 1288.21L969.987 1326H961.537C956.969 1326 952.401 1325.09 951.259 1324.18Z" fill="black"/>
<path d="M1535.34 1456.07C1533.52 1437.81 1533.52 1301.95 1535.57 1273.18L1536.94 1251.04L1594.18 1226.61C1722.12 1172.27 1742.19 1163.82 1785.98 1145.78C1811.06 1135.28 1858.04 1115.18 1890.2 1100.8C1928.74 1083.9 1951.77 1075 1957.02 1075H1965V1183.23V1291.22L1947.44 1299.44C1928.51 1307.89 1720.3 1396.71 1702.51 1403.79C1696.58 1406.07 1687.46 1410.18 1681.98 1412.69C1676.51 1415.2 1666.93 1419.31 1660.54 1421.82C1654.39 1424.34 1626.56 1436.21 1598.97 1448.08C1571.37 1460.18 1546.06 1470 1542.87 1470C1537.17 1470 1536.71 1469.09 1535.34 1456.07Z" fill="black"/>
<path d="M878.563 1445C839.137 1428.14 788.317 1406.25 765.755 1396.23C697.387 1366.37 567.031 1311.66 551.078 1305.97L539 1301.64V1262.43V1223H546.748C556.32 1223 564.296 1225.74 606.457 1244.2C649.529 1262.89 837.314 1342.89 909.329 1373.2C939.411 1385.97 965.619 1397.14 967.442 1398.28C970.177 1399.87 971.088 1407.17 971.544 1438.16L972 1476H961.289C952.401 1475.77 936.676 1470.07 878.563 1445Z" fill="black"/>
<path d="M919.759 1616.44C901.519 1608.71 882.139 1600.07 876.439 1597.57C864.811 1592.11 780.907 1556.4 702.019 1522.97C673.291 1510.92 644.108 1498.41 637.496 1495.45C615.38 1485.44 543.332 1455.88 541.28 1455.88C539.912 1455.88 539 1439.73 539 1414.94V1374H546.752C550.856 1374 562.484 1377.64 572.288 1382.19C589.16 1389.92 683.551 1430.86 733.939 1452.46C746.479 1457.92 793.675 1477.71 838.819 1496.36C958.062 1546.39 968.322 1550.72 970.146 1554.13C971.058 1555.95 971.286 1573.91 970.602 1594.16L969.234 1631L961.026 1630.77C956.238 1630.77 939.138 1624.86 919.759 1616.44Z" fill="black"/>
<path d="M1535 1590.46V1551.14L1623.32 1513.43C1671.82 1492.63 1734.28 1466.34 1761.74 1454.69C1813.91 1432.74 1869.28 1408.97 1918.7 1386.8C1936.32 1379.03 1951.19 1374 1955.99 1374H1964L1963.54 1413.09L1962.86 1452.17L1925.79 1469.09C1905.2 1478.23 1812.99 1518.23 1720.56 1558C1597 1611.03 1550.33 1630 1543.92 1630H1535V1590.46Z" fill="black"/>
<path d="M950.604 1787.35C938.061 1781.38 838.629 1738 784.124 1714.59C727.11 1690.04 611.258 1639.77 594.382 1632.2C590.505 1630.36 586.628 1628.99 585.944 1628.99C585.26 1628.99 580.243 1626.92 574.769 1624.62C569.524 1622.33 559.262 1617.74 552.192 1614.53L538.965 1608.56V1583.77C538.965 1570.23 538.28 1552.1 537.368 1543.61L536 1528H545.35C550.595 1528 560.858 1530.98 570.208 1535.11C578.646 1539.02 607.381 1551.41 633.608 1562.43C660.062 1573.67 703.62 1592.49 730.531 1604.43C811.49 1640.23 882.188 1670.99 923.237 1688.66C944.675 1697.84 964.287 1706.33 967.252 1707.71C972.269 1710 972.269 1710.46 971.813 1749.25L971.129 1788.5L963.147 1788.96C958.814 1789.19 953.113 1788.5 950.604 1787.35Z" fill="black"/>
<path d="M1535.37 1750.97C1536.05 1729.79 1537.19 1712.03 1538.11 1711.12C1538.79 1710.21 1557.5 1701.79 1579.4 1692.22C1601.31 1682.66 1623.44 1672.87 1628.46 1670.59C1647.85 1661.48 1707.86 1635.75 1793.88 1599.31C1822.17 1587.47 1867.35 1567.66 1894.27 1555.59C1924.16 1542.16 1947.66 1533.05 1954.28 1532.37L1965 1531L1964.54 1570.39L1963.86 1609.56L1910.24 1633.47C1860.73 1655.33 1769.46 1694.95 1613.63 1761.9C1571.65 1779.89 1548.15 1789 1542.44 1789H1534L1535.37 1750.97Z" fill="black"/>
<path d="M949.211 1945.57C938.955 1939.38 827.515 1890.62 662.063 1819.64C618.763 1801.1 580.477 1784.62 576.603 1783.01C572.956 1781.41 562.929 1777.29 554.497 1773.86L539 1767.44V1727.61V1688H546.52C553.585 1688 573.184 1695.56 655.226 1729.9C724.278 1758.74 824.096 1802.02 933.714 1850.78L972 1867.72V1908.48V1949H963.568C958.782 1949 952.401 1947.4 949.211 1945.57Z" fill="black"/>
<path d="M1534 1908.37V1870.74L1543.12 1866.18C1559.31 1857.97 1658.06 1815.33 1782.57 1762.88C1810.84 1751.02 1850.75 1733.91 1871.5 1724.79C1892.25 1715.9 1918.48 1704.27 1930.11 1699.25C1942.65 1694.01 1953.83 1690.58 1957.47 1691.04L1963.86 1691.72L1964.54 1731.18L1965 1770.4L1952 1776.33C1944.7 1779.52 1923.95 1788.19 1905.71 1795.94C1874.92 1808.71 1758.39 1858.2 1613.36 1920C1569.35 1938.7 1549.73 1946 1543.12 1946H1534V1908.37Z" fill="black"/>
<path fill-rule="evenodd" clip-rule="evenodd" d="M1032.65 2260.05C1035.21 2261.11 1037.1 2261.99 1037.69 2262.45C1039.06 2263.37 1048.64 2267.71 1059.38 2272.04C1133.35 2302.17 1151.62 2314.73 1194.77 2364.49C1213.49 2385.95 1235.18 2415.85 1235.18 2419.96C1235.18 2421.1 1242.26 2422.02 1250.71 2422.02C1262.81 2422.02 1266.69 2421.1 1268.97 2418.14C1269.72 2416.9 1271.61 2413.97 1273.95 2410.34L1273.96 2410.32C1275.93 2407.28 1278.2 2403.76 1280.39 2400.33C1298.65 2371.8 1335.64 2332.99 1366.23 2309.71C1395.92 2287.56 1439.3 2262.45 1478.34 2245.33L1487.81 2241.05L1487 2240.42L1608.04 2190L1608.55 2190.2C1631.04 2179.82 1683.68 2157.06 1720.35 2141.93C1779.03 2117.96 1818.76 2101.52 1851.64 2087.6C1864.54 2082.19 1887.42 2072.8 1908.39 2064.19L1908.4 2064.19L1916.24 2060.97C1919.96 2059.44 1923.56 2057.96 1926.98 2056.55C1989.54 2030.99 2024.47 2016.38 2071.96 1996.29C2094.57 1986.7 2120.82 1975.74 2130.18 1972.09C2134.53 1970.29 2139.22 1968.39 2143.36 1966.71C2148.14 1964.78 2152.2 1963.13 2154.16 1962.28C2155.93 1961.55 2159.75 1959.91 2164.61 1957.83C2170.4 1955.35 2177.68 1952.24 2184.75 1949.26C2203.02 1941.5 2208.73 1938.08 2210.55 1933.51C2212.15 1929.86 2212.38 1818.01 2211.47 1604.8C2210.78 1427.2 2210.1 1148.03 2210.1 984.583V687.143H2203.47C2199.82 687.143 2189.32 690.567 2180.19 694.904C2143.88 711.34 1967.85 786.214 1824.24 846.249C1813.39 850.845 1798.82 856.94 1784.78 862.817L1784.73 862.837L1784.72 862.841C1773.67 867.465 1762.94 871.953 1754.6 875.468C1735.88 883.458 1701.86 897.611 1679.26 906.97C1656.65 916.329 1624.23 929.797 1607.34 937.102C1590.44 944.179 1560.53 956.734 1541.13 964.951C1460.07 999.192 1416.92 1025.67 1376.51 1065.85C1347.06 1095.52 1329.7 1119.95 1312.58 1156.24C1299.11 1184.55 1285.18 1226.1 1278.1 1257.83L1272.85 1281.79L1271.71 1819.38L1270.34 2356.96L1264.4 2374.08C1261.21 2383.44 1257.1 2394.17 1255.5 2397.59L1252.53 2403.98L1249.34 2397.82C1247.51 2394.62 1243.86 2385.95 1241.34 2378.87L1236.32 2366.09L1235.18 1830.79C1234.04 1343.66 1233.58 1293.44 1229.93 1273.35C1214.86 1185.01 1183.58 1121.09 1129.24 1066.99C1076.27 1014.26 1035.86 991.203 884.712 927.971C790.189 888.252 746.809 869.762 680.368 841.227C653.427 829.585 621.006 815.661 608.448 810.411C595.891 805.16 543.606 782.561 492.006 760.19C351.591 699.242 309.124 682.121 300.676 683.034L293.37 683.719L292.685 1310.56L292 1937.39L316.658 1947.89C330.129 1953.6 384.469 1976.43 437.21 1998.57C489.951 2020.49 539.725 2041.71 547.944 2045.37C566.666 2053.58 600.914 2067.97 705.483 2110.88C714.694 2114.61 724.718 2118.75 733.042 2122.19L733.088 2122.21C740.012 2125.07 745.755 2127.44 748.863 2128.69C752.228 2130.14 757.411 2132.26 763.085 2134.58L763.109 2134.59L763.113 2134.59C768.983 2136.99 775.377 2139.61 780.828 2141.93C791.559 2146.26 814.619 2156.08 832.199 2164.07C842.807 2168.75 853.497 2173.43 861.212 2176.81L861.214 2176.82C866.284 2179.04 870.068 2180.69 871.698 2181.42C875.58 2183.24 882.429 2186.21 886.767 2188.04C890.877 2189.86 896.813 2192.37 899.781 2193.29L900.112 2193.42L901.325 2193L1034 2259.18L1032.65 2260.05ZM1480.16 2054.73C1500.49 2046.05 1527.88 2034.64 1541.13 2029.39C1544.84 2027.85 1549.86 2025.79 1555.66 2023.41L1555.66 2023.41C1570.53 2017.3 1590.59 2009.06 1607.34 2002C1630.63 1992.41 1663.05 1979.17 1679.26 1972.55C1690.11 1968.03 1704.76 1962.01 1717.59 1956.73L1717.64 1956.71L1717.69 1956.7C1724.25 1954 1730.33 1951.5 1735.2 1949.49C1745.74 1944.97 1771.27 1934.44 1798.72 1923.11C1808.7 1918.99 1818.94 1914.77 1828.81 1910.69C1888.62 1885.8 1930.18 1868.46 1950.96 1859.1C1976.53 1847.91 2017.17 1830.33 2029.73 1825.08C2037.94 1821.66 2049.36 1816.41 2055.53 1813.44L2066.26 1807.96V1371.73C2066.26 1023.62 2065.57 935.732 2063.52 936.645C2061.92 937.33 2023.1 954.222 1977.21 974.31C1931.32 994.399 1872.41 1019.74 1845.93 1030.69C1819.67 1041.65 1773.78 1061.05 1744.33 1073.61C1731.23 1079.09 1716.83 1085.16 1703.6 1090.73L1703.59 1090.74C1687.07 1097.69 1672.4 1103.87 1664.42 1107.17C1549.57 1154.87 1537.24 1160.81 1513.5 1179.76C1485.42 1202.36 1469.43 1222.9 1456.65 1252.8C1455.46 1255.63 1454.36 1258.03 1453.36 1260.24C1452.34 1262.47 1451.42 1264.51 1450.57 1266.58C1441.87 1287.88 1441.83 1312.72 1441.3 1593.5C1441.25 1620.86 1441.19 1650.64 1441.12 1683.1C1440.89 1896.08 1441.12 2070.48 1441.81 2070.48C1442.72 2070.48 1459.84 2063.4 1480.16 2054.73ZM1060.52 1626.49V1626.47C1060.52 1293.66 1060.52 1293.21 1055.72 1277C1045.9 1243.9 1031.29 1219.02 1007.55 1195.05C992.478 1179.76 985.4 1173.82 973.985 1166.74C962.112 1159.21 920.787 1139.35 901.836 1131.82C886.311 1125.66 877.863 1122 857.314 1112.87C853.661 1111.27 840.19 1105.57 827.633 1100.32C815.076 1095.07 795.669 1086.62 784.253 1081.6C773.065 1076.58 746.809 1065.16 726.032 1056.49C705.255 1047.81 685.391 1039.37 681.51 1037.54C661.418 1028.87 639.271 1019.51 609.59 1007.18C572.374 991.659 541.779 978.648 485.157 953.538L446.343 936.189L445.658 1369.22C445.429 1607.31 445.658 1803.4 446.114 1804.54C447.256 1807.96 603.882 1875.76 841.332 1975.74C885.397 1994.23 934.714 2015.01 950.924 2021.85C979.236 2033.73 1025.13 2053.58 1040.2 2060.43C1041.15 2060.83 1042.21 2061.27 1043.32 2061.74C1046.71 2063.17 1050.51 2064.77 1052.75 2065.46L1058.23 2067.51L1059.38 2013.64C1060.06 1983.96 1060.52 1809.79 1060.52 1626.49Z" fill="black"/>
<path d="M1219.95 423.688C1183.59 418.264 1155.34 404.702 1128.8 379.551C1087.53 340.838 1069.6 294.728 1073.53 238.015C1075.25 214.837 1080.41 190.426 1085.08 185.494C1086.3 184.261 1087.29 181.796 1087.29 180.316C1087.29 178.59 1091.22 170.453 1095.88 162.563C1119.22 122.617 1151.4 96.7263 1195.38 82.9179C1211.1 77.9864 1218.96 77 1249.43 77C1291.68 77 1313.79 81.4384 1340.08 95.0002C1380.12 115.713 1409.11 149.987 1423.85 194.124C1430.48 214.097 1433.18 258.728 1429.01 285.112C1418.93 349.469 1370.78 401.99 1306.17 418.757C1285.29 424.428 1241.32 426.647 1219.95 423.688ZM1270.55 328.016C1305.44 316.427 1331.72 282.646 1331.48 250.344C1331.23 222.974 1312.07 194.864 1283.82 180.316C1272.52 174.398 1267.36 173.165 1251.88 173.165C1236.4 173.165 1231.25 174.398 1218.96 180.563C1192.43 193.878 1172.78 224.454 1172.29 252.07C1172.04 281.906 1199.31 316.427 1232.23 328.016C1246.72 332.948 1255.81 333.195 1270.55 328.016Z" fill="black"/>
</svg>
