<svg width="2800" height="2172" viewBox="0 0 2800 2172" fill="none" xmlns="http://www.w3.org/2000/svg">
<path d="M1855.68 320.786C1821.86 315.767 1795.59 303.218 1770.91 279.947C1732.52 244.126 1715.84 201.461 1719.49 148.985C1721.09 127.539 1725.89 104.951 1730.23 100.388C1731.37 99.2476 1732.29 96.9661 1732.29 95.5972C1732.29 94.0001 1735.94 86.4709 1740.29 79.17C1761.99 42.2088 1791.93 18.2525 1832.83 5.47579C1847.46 0.912677 1854.77 0 1883.11 0C1922.41 0 1942.97 4.10677 1967.43 16.6553C2004.67 35.8204 2031.64 67.534 2045.35 108.374C2051.52 126.854 2054.03 168.151 2050.15 192.563C2040.78 252.112 1995.99 300.709 1935.89 316.223C1916.47 321.471 1875.56 323.524 1855.68 320.786ZM1902.76 232.262C1935.21 221.539 1959.66 190.282 1959.43 160.393C1959.2 135.068 1941.38 109.058 1915.1 95.5972C1904.58 90.1214 1899.79 88.9806 1885.39 88.9806C1870.99 88.9806 1866.2 90.1214 1854.77 95.8253C1830.09 108.146 1811.81 136.437 1811.35 161.99C1811.12 189.597 1836.49 221.539 1867.11 232.262C1880.59 236.825 1889.05 237.054 1902.76 232.262Z" fill="black"/>
<path d="M890.684 320.786C856.864 315.767 830.586 303.218 805.907 279.947C767.517 244.126 750.836 201.461 754.492 148.985C756.092 127.539 760.89 104.951 765.232 100.388C766.374 99.2476 767.288 96.9661 767.288 95.5972C767.288 94.0001 770.945 86.4709 775.286 79.17C796.995 42.2088 826.93 18.2525 867.833 5.47579C882.457 0.912677 889.77 0 918.105 0C957.409 0 977.975 4.10677 1002.43 16.6553C1039.67 35.8204 1066.64 67.534 1080.35 108.374C1086.52 126.854 1089.03 168.151 1085.15 192.563C1075.78 252.112 1030.99 300.709 970.891 316.223C951.467 321.471 910.564 323.524 890.684 320.786ZM937.757 232.262C970.205 221.539 994.656 190.282 994.427 160.393C994.199 135.068 976.375 109.058 950.096 95.5972C939.585 90.1214 934.786 88.9806 920.39 88.9806C905.994 88.9806 901.195 90.1214 889.77 95.8253C865.091 108.146 846.81 136.437 846.353 161.99C846.124 189.597 871.489 221.539 902.109 232.262C915.591 236.825 924.046 237.054 937.757 232.262Z" fill="black"/>
<path d="M984 128H1806.5V150.5H1000.5L984 128Z" fill="black"/>
<path d="M1058.75 236L1249 383.443L1239.83 418L1045 259.038L1058.75 236Z" fill="black"/>
<path d="M1557 394.395L1738.15 241L1754 259.316L1568.32 415L1557 394.395Z" fill="black"/>
<path d="M1373.27 593.79C1339.56 588.786 1313.36 576.277 1288.75 553.077C1250.48 517.368 1233.85 474.836 1237.49 422.523C1239.09 401.143 1243.87 378.626 1248.2 374.077C1249.34 372.939 1250.25 370.665 1250.25 369.3C1250.25 367.708 1253.89 360.202 1258.22 352.924C1279.87 316.078 1309.71 292.196 1350.49 279.459C1365.07 274.91 1372.36 274 1400.61 274C1439.8 274 1460.3 278.094 1484.68 290.604C1521.81 309.709 1548.7 341.324 1562.37 382.037C1568.52 400.46 1571.02 441.628 1567.15 465.965C1557.81 525.329 1513.16 573.775 1453.24 589.241C1433.87 594.473 1393.09 596.52 1373.27 593.79ZM1420.2 505.541C1452.56 494.851 1476.93 463.691 1476.71 433.895C1476.48 408.649 1458.71 382.72 1432.51 369.3C1422.03 363.842 1417.24 362.704 1402.89 362.704C1388.54 362.704 1383.75 363.842 1372.36 369.528C1347.76 381.81 1329.53 410.013 1329.08 435.487C1328.85 463.008 1354.14 494.851 1384.66 505.541C1398.11 510.09 1406.54 510.317 1420.2 505.541Z" fill="black"/>
<path d="M734.79 2108.71C711.501 2103.23 691.866 2087.02 681.363 2064.42C675.656 2052.09 674.971 2048.44 674.971 2025.61C674.971 2001.65 675.427 1999.59 682.505 1985.21C691.638 1966.72 707.848 1951.2 725.429 1944.81C735.246 1940.92 743.238 1940.01 762.645 1940.01C787.531 1940.01 798.719 1942.29 814.701 1950.74L821.779 1954.39L854.657 1934.99C882.74 1918.1 922.467 1895.27 961.509 1873.36C981.829 1861.94 1001.69 1850.07 1014.02 1841.85C1020.87 1837.29 1030.23 1831.81 1034.57 1829.53C1038.91 1827.25 1045.53 1823.82 1049.41 1821.99L1056.03 1818.34L1050.78 1816.29C1047.81 1815.38 1041.88 1812.86 1037.77 1811.04C1033.43 1809.21 1026.58 1806.24 1022.7 1804.42C1018.59 1802.59 1000.78 1794.83 983.199 1787.07C965.619 1779.08 942.559 1769.26 931.828 1764.93C921.097 1760.36 906.713 1754.65 899.863 1751.69C893.014 1748.95 873.379 1740.73 856.483 1733.88C751.914 1690.97 717.666 1676.58 698.944 1668.37C690.725 1664.71 640.951 1643.49 588.21 1621.57C535.469 1599.43 481.129 1576.6 467.658 1570.89L443 1560.39L443.685 933.556L444.37 306.719L451.676 306.034C460.124 305.121 502.591 322.242 643.006 383.19C694.606 405.561 746.891 428.16 759.448 433.411C772.006 438.661 804.427 452.585 831.368 464.227C897.809 492.762 941.189 511.252 1035.71 550.971C1186.86 614.203 1227.27 637.258 1280.24 689.989C1334.58 744.09 1365.86 808.006 1380.93 896.348C1384.58 916.436 1385.04 966.656 1386.18 1453.79L1387.32 1989.09L1392.34 2001.87C1394.86 2008.95 1398.51 2017.62 1400.34 2020.82L1403.53 2026.98L1406.5 2020.59C1408.1 2017.17 1412.21 2006.44 1415.4 1997.08L1421.34 1979.96L1422.71 1442.38L1423.85 904.794L1429.1 880.826C1436.18 849.096 1450.11 807.55 1463.58 779.244C1480.7 742.949 1498.06 718.524 1527.51 688.848C1567.92 648.672 1611.07 622.192 1692.13 587.951C1711.53 579.734 1741.44 567.178 1758.34 560.102C1775.23 552.797 1807.65 539.329 1830.26 529.97C1852.86 520.611 1886.88 506.458 1905.6 498.468C1924.55 490.479 1955.83 477.467 1975.24 469.249C2118.85 409.214 2294.88 334.34 2331.19 317.904C2340.32 313.567 2350.82 310.143 2354.47 310.143H2361.1V607.583C2361.1 771.026 2361.78 1050.2 2362.47 1227.8C2363.38 1441.01 2363.15 1552.86 2361.55 1556.51C2359.73 1561.08 2354.02 1564.5 2335.75 1572.26C2322.74 1577.74 2309.04 1583.68 2305.16 1585.28C2301.51 1586.87 2290.55 1591.21 2281.18 1595.09C2271.82 1598.74 2245.57 1609.7 2222.96 1619.29C2175.47 1639.38 2140.54 1653.99 2077.98 1679.55C2053.55 1689.6 2019.53 1703.52 2002.64 1710.6C1969.76 1724.52 1930.03 1740.96 1871.35 1764.93C1824.32 1784.33 1751.03 1816.29 1748.75 1818.57C1746.69 1820.63 1786.42 1844.59 1868.62 1890.71C1903.55 1910.34 1943.5 1933.62 1957.66 1942.07C1979.12 1955.31 1983.69 1957.36 1986.66 1954.85C1988.48 1953.25 1994.65 1949.6 2000.35 1946.63C2009.72 1941.61 2013.37 1941.15 2042.59 1941.15C2072.73 1941.15 2075.24 1941.38 2086.2 1947.32C2101.04 1955.08 2115.43 1969.92 2123.19 1985.67C2128.9 1997.31 2129.35 2000.5 2129.35 2025.61C2129.35 2050.95 2128.9 2053.92 2122.96 2066.02C2114.97 2082.23 2097.85 2097.98 2080.72 2104.82C2069.76 2109.16 2063.37 2109.85 2040.31 2110.08C2008.57 2110.08 1998.76 2106.88 1980.95 2090.44C1965.65 2076.29 1954.69 2052.09 1954.69 2032.23C1954.69 2025.61 1953.32 2024.47 1931.4 2013.06C1918.39 2006.44 1861.08 1976.54 1804 1946.86C1746.92 1916.96 1686.87 1885.91 1670.89 1877.69L1641.44 1862.86L1629.34 1868.33C1590.3 1885.45 1546.92 1910.56 1517.23 1932.71C1486.64 1955.99 1449.65 1994.8 1431.39 2023.33C1426.59 2030.86 1421.34 2038.85 1419.97 2041.14C1417.69 2044.1 1413.81 2045.02 1401.71 2045.02C1393.26 2045.02 1386.18 2044.1 1386.18 2042.96C1386.18 2038.85 1364.49 2008.95 1345.77 1987.49C1302.62 1937.73 1284.35 1925.17 1210.38 1895.04C1199.64 1890.71 1190.06 1886.37 1188.69 1885.45C1187.54 1884.54 1181.38 1882.03 1174.99 1879.75C1168.82 1877.47 1161.29 1874.73 1158.55 1873.36C1154.67 1871.3 1150.78 1871.53 1143.71 1873.81C1133.2 1877.24 1022.24 1932.94 963.792 1963.98C944.385 1974.48 910.823 1991.6 889.361 2002.33L850.319 2021.96L849.177 2036.57C845.524 2082 809.678 2111.67 759.448 2110.99C750.772 2110.76 739.585 2109.85 734.79 2108.71ZM1631.16 1677.73C1651.49 1669.05 1678.88 1657.64 1692.13 1652.39C1705.37 1646.91 1735.05 1634.81 1758.34 1625C1781.63 1615.41 1814.05 1602.17 1830.26 1595.55C1846.7 1588.7 1871.81 1578.43 1886.2 1572.49C1900.58 1566.33 1942.82 1548.98 1979.81 1533.69C2039.62 1508.8 2081.18 1491.46 2101.96 1482.1C2127.53 1470.91 2168.17 1453.33 2180.73 1448.08C2188.94 1444.66 2200.36 1439.41 2206.53 1436.44L2217.26 1430.96V994.734C2217.26 646.618 2216.57 558.732 2214.52 559.645C2212.92 560.33 2174.1 577.222 2128.21 597.31C2082.32 617.399 2023.41 642.737 1996.93 653.694C1970.67 664.651 1924.78 684.054 1895.33 696.609C1865.88 708.936 1829.8 724.23 1815.42 730.165C1700.57 777.874 1688.24 783.809 1664.5 802.756C1636.42 825.355 1620.43 845.9 1607.65 875.803C1591.67 913.697 1593.04 876.26 1592.12 1306.1C1591.89 1519.08 1592.12 1693.48 1592.81 1693.48C1593.72 1693.48 1610.84 1686.4 1631.16 1677.73ZM1211.52 1249.49C1211.52 916.664 1211.52 916.208 1206.72 900C1196.9 866.901 1182.29 842.019 1158.55 818.05C1143.48 802.756 1136.4 796.821 1124.98 789.745C1113.11 782.212 1071.79 762.352 1052.84 754.819C1037.31 748.655 1028.86 745.003 1008.31 735.872C1004.66 734.274 991.19 728.567 978.633 723.317C966.076 718.067 946.669 709.621 935.253 704.599C924.065 699.577 897.809 688.163 877.032 679.489C856.255 670.814 836.391 662.368 832.51 660.542C812.418 651.868 790.271 642.509 760.59 630.182C723.374 614.659 692.779 601.648 636.157 576.538L597.343 559.189L596.658 992.223C596.429 1230.31 596.658 1426.4 597.114 1427.54C598.256 1430.96 754.882 1498.76 992.332 1598.74C1036.4 1617.23 1085.71 1638.01 1101.92 1644.85C1130.24 1656.73 1176.13 1676.58 1191.2 1683.43C1195.08 1685.03 1200.79 1687.54 1203.75 1688.46L1209.23 1690.51L1210.38 1636.64C1211.06 1606.96 1211.52 1432.79 1211.52 1249.49Z" fill="black"/>
<path d="M193.243 750.61C188.456 749.7 188 748.335 188 735.597C188.228 716.262 192.787 696.244 200.538 681.914C208.517 667.356 229.262 647.793 244.079 640.969C270.067 628.686 311.101 626.184 321.131 636.192C325.235 640.287 325.69 644.381 326.602 688.283C327.286 714.442 327.058 738.554 326.146 741.511C323.867 751.065 315.204 752.202 254.338 751.975C223.562 751.747 195.979 751.065 193.243 750.61Z" fill="black"/>
<path d="M2480.72 747.271C2478.68 745.224 2478 730.212 2478 694.047V643.325L2483.88 638.776C2488.86 634.682 2493.16 634 2509.46 634C2542.96 634 2566.04 643.325 2589.13 666.071C2607.68 684.494 2616.28 703.827 2617.87 729.984L2619 750H2551.1C2501.54 750 2482.75 749.318 2480.72 747.271Z" fill="black"/>
<path d="M1102.26 947.179C1099.06 944.446 1024.15 911.888 944.664 878.42C908.349 863.165 868.151 846.089 855.589 840.625C843.027 835.161 801.002 817.402 761.945 801.237L691.142 772.094L690.457 732.933L690 694H698.222C706.673 694 731.112 703.107 797.347 731.567C816.761 739.991 877.058 765.036 930.96 787.348C985.091 809.661 1043.56 834.25 1061.15 841.991C1078.73 849.504 1099.52 858.612 1107.28 862.027C1115.28 865.442 1122.13 869.313 1122.59 870.906C1123.27 872.272 1123.04 890.487 1122.36 911.205L1120.99 949H1112.54C1107.97 949 1103.4 948.089 1102.26 947.179Z" fill="black"/>
<path d="M1686.34 1079.07C1684.52 1060.81 1684.52 924.954 1686.57 896.185L1687.94 874.038L1745.18 849.607C1873.12 795.266 1893.19 786.818 1936.98 768.78C1962.06 758.277 2009.04 738.185 2041.2 723.801C2079.74 706.905 2102.77 698 2108.02 698H2116V806.225V914.223L2098.44 922.442C2079.51 930.89 1871.3 1019.71 1853.51 1026.79C1847.58 1029.07 1838.46 1033.18 1832.98 1035.69C1827.51 1038.2 1817.93 1042.31 1811.54 1044.82C1805.39 1047.34 1777.56 1059.21 1749.97 1071.08C1722.37 1083.18 1697.06 1093 1693.87 1093C1688.17 1093 1687.71 1092.09 1686.34 1079.07Z" fill="black"/>
<path d="M136.273 1164.78C102.555 1159.75 76.3558 1147.16 51.7508 1123.82C13.4764 1087.88 -3.15468 1045.09 0.490497 992.448C2.08526 970.935 6.86945 948.277 11.1981 943.7C12.3372 942.556 13.2486 940.267 13.2486 938.894C13.2486 937.292 16.8937 929.739 21.2224 922.416C42.8657 885.34 72.7106 861.309 113.491 848.493C128.072 843.916 135.362 843 163.612 843C202.798 843 223.302 847.12 247.679 859.707C284.814 878.932 311.698 910.744 325.367 951.71C331.518 970.248 334.024 1011.67 330.151 1036.16C320.811 1095.89 276.157 1144.64 216.239 1160.21C196.874 1165.47 156.094 1167.53 136.273 1164.78ZM183.205 1075.98C215.556 1065.23 239.933 1033.87 239.705 1003.89C239.478 978.488 221.707 952.397 195.508 938.894C185.028 933.401 180.243 932.257 165.89 932.257C151.538 932.257 146.753 933.401 135.362 939.123C110.757 951.482 92.5312 979.861 92.0755 1005.49C91.8477 1033.19 117.136 1065.23 147.665 1075.98C161.106 1080.56 169.536 1080.79 183.205 1075.98Z" fill="black"/>
<path d="M2604.27 1165.79C2570.56 1160.77 2544.36 1148.22 2519.75 1124.95C2481.48 1089.13 2464.85 1046.46 2468.49 993.985C2470.09 972.539 2474.87 949.951 2479.2 945.388C2480.34 944.248 2481.25 941.966 2481.25 940.597C2481.25 939 2484.89 931.471 2489.22 924.17C2510.87 887.209 2540.71 863.252 2581.49 850.476C2596.07 845.913 2603.36 845 2631.61 845C2670.8 845 2691.3 849.107 2715.68 861.655C2752.81 880.82 2779.7 912.534 2793.37 953.374C2799.52 971.854 2802.02 1013.15 2798.15 1037.56C2788.81 1097.11 2744.16 1145.71 2684.24 1161.22C2664.87 1166.47 2624.09 1168.52 2604.27 1165.79ZM2651.2 1077.26C2683.56 1066.54 2707.93 1035.28 2707.71 1005.39C2707.48 980.068 2689.71 954.058 2663.51 940.597C2653.03 935.121 2648.24 933.981 2633.89 933.981C2619.54 933.981 2614.75 935.121 2603.36 940.825C2578.76 953.146 2560.53 981.437 2560.08 1006.99C2559.85 1034.6 2585.14 1066.54 2615.66 1077.26C2629.11 1081.83 2637.54 1082.05 2651.2 1077.26Z" fill="black"/>
<path d="M1029.56 1068C990.137 1051.14 939.317 1029.25 916.755 1019.23C848.387 989.367 718.031 934.664 702.078 928.966L690 924.635V885.432V846H697.748C707.32 846 715.296 848.735 757.457 867.197C800.529 885.887 988.314 965.89 1060.33 996.205C1090.41 1008.97 1116.62 1020.14 1118.44 1021.28C1121.18 1022.87 1122.09 1030.17 1122.54 1061.16L1123 1099H1112.29C1103.4 1098.77 1087.68 1093.07 1029.56 1068Z" fill="black"/>
<path d="M1070.76 1239.44C1052.52 1231.71 1033.14 1223.07 1027.44 1220.57C1015.81 1215.11 931.907 1179.4 853.019 1145.97C824.291 1133.92 795.108 1121.41 788.496 1118.45C766.38 1108.44 694.332 1078.88 692.28 1078.88C690.912 1078.88 690 1062.73 690 1037.94V997H697.752C701.856 997 713.484 1000.64 723.288 1005.19C740.16 1012.92 834.551 1053.86 884.939 1075.46C897.479 1080.92 944.675 1100.71 989.819 1119.36C1109.06 1169.39 1119.32 1173.72 1121.15 1177.13C1122.06 1178.95 1122.29 1196.91 1121.6 1217.16L1120.23 1254L1112.03 1253.77C1107.24 1253.77 1090.14 1247.86 1070.76 1239.44Z" fill="black"/>
<path d="M1686 1213.46V1174.14L1774.32 1136.43C1822.82 1115.63 1885.28 1089.34 1912.74 1077.69C1964.91 1055.74 2020.28 1031.97 2069.7 1009.8C2087.32 1002.03 2102.19 997 2106.99 997H2115L2114.54 1036.09L2113.86 1075.17L2076.79 1092.09C2056.2 1101.23 1963.99 1141.23 1871.56 1181C1748 1234.03 1701.33 1253 1694.92 1253H1686V1213.46Z" fill="black"/>
<path d="M1101.6 1410.35C1089.06 1404.38 989.629 1361 935.124 1337.59C878.11 1313.04 762.258 1262.77 745.382 1255.2C741.505 1253.36 737.628 1251.99 736.944 1251.99C736.26 1251.99 731.243 1249.92 725.769 1247.62C720.524 1245.33 710.262 1240.74 703.192 1237.53L689.965 1231.56V1206.77C689.965 1193.23 689.28 1175.1 688.368 1166.61L687 1151H696.35C701.595 1151 711.858 1153.98 721.208 1158.11C729.646 1162.02 758.381 1174.41 784.608 1185.43C811.062 1196.67 854.62 1215.49 881.531 1227.43C962.49 1263.23 1033.19 1293.99 1074.24 1311.66C1095.67 1320.84 1115.29 1329.33 1118.25 1330.71C1123.27 1333 1123.27 1333.46 1122.81 1372.25L1122.13 1411.5L1114.15 1411.96C1109.81 1412.19 1104.11 1411.5 1101.6 1410.35Z" fill="black"/>
<path d="M1686.37 1373.97C1687.05 1352.79 1688.19 1335.03 1689.11 1334.12C1689.79 1333.21 1708.5 1324.79 1730.4 1315.22C1752.31 1305.66 1774.44 1295.87 1779.46 1293.59C1798.85 1284.48 1858.86 1258.75 1944.88 1222.31C1973.17 1210.47 2018.35 1190.66 2045.27 1178.59C2075.16 1165.16 2098.66 1156.05 2105.28 1155.37L2116 1154L2115.54 1193.39L2114.86 1232.56L2061.24 1256.47C2011.73 1278.33 1920.46 1317.95 1764.63 1384.9C1722.65 1402.89 1699.15 1412 1693.44 1412H1685L1686.37 1373.97Z" fill="black"/>
<path d="M1100.21 1568.57C1089.96 1562.38 978.515 1513.62 813.063 1442.64C769.763 1424.1 731.477 1407.62 727.603 1406.01C723.956 1404.41 713.929 1400.29 705.497 1396.86L690 1390.44V1350.61V1311H697.52C704.585 1311 724.184 1318.56 806.226 1352.9C875.278 1381.74 975.096 1425.02 1084.71 1473.78L1123 1490.72V1531.48V1572H1114.57C1109.78 1572 1103.4 1570.4 1100.21 1568.57Z" fill="black"/>
<path d="M1685 1531.37V1493.74L1694.12 1489.18C1710.31 1480.97 1809.06 1438.33 1933.57 1385.88C1961.84 1374.02 2001.75 1356.91 2022.5 1347.79C2043.25 1338.9 2069.48 1327.27 2081.11 1322.25C2093.65 1317.01 2104.83 1313.58 2108.47 1314.04L2114.86 1314.72L2115.54 1354.18L2116 1393.4L2103 1399.33C2095.7 1402.52 2074.95 1411.19 2056.71 1418.94C2025.92 1431.71 1909.39 1481.2 1764.36 1543C1720.35 1561.7 1700.73 1569 1694.12 1569H1685V1531.37Z" fill="black"/>
<path d="M218.7 1417.19C202.254 1408.7 197 1398.14 197 1373.34C197 1342.12 208.193 1329.03 236.974 1327.2C258.903 1325.82 271.923 1331.56 280.603 1346.48C286.086 1355.67 286.543 1358.42 285.629 1377.02C284.944 1400.43 281.517 1407.09 266.441 1415.58C255.477 1422.01 229.436 1422.93 218.7 1417.19Z" fill="black"/>
<path d="M2535.75 1418.11C2520.18 1411.02 2514 1398.9 2514 1376.04C2514 1357.29 2519.49 1344.26 2530.25 1336.49C2537.12 1331.69 2540.56 1331 2559.1 1331C2576.73 1331 2581.08 1331.69 2586.34 1335.8C2599.16 1345.18 2602.14 1351.58 2602.83 1372.15C2603.97 1394.33 2599.62 1404.85 2585.88 1414.22C2575.81 1421.08 2546.97 1423.37 2535.75 1418.11Z" fill="black"/>
<path d="M1638 1863.42L1759.04 1813L2138.16 1959.67L2161 2143L1973.72 2124.67L1638 1863.42Z" fill="white"/>
<path d="M1052.32 1816L1185 1882.18L734.362 2172L636 2064.74L661.162 1950.64L1052.32 1816Z" fill="white"/>
</svg>
