<svg width="621" height="104" viewBox="0 0 621 104" fill="none" xmlns="http://www.w3.org/2000/svg">
<path d="M57.9645 20.4545V83H45.1378L20.2479 46.902H19.8509V83H4.73367V20.4545H17.7436L42.3587 56.4915H42.8778V20.4545H57.9645ZM249.09 39.206C248.886 36.9664 247.98 35.2256 246.372 33.9837C244.784 32.7214 242.514 32.0902 239.562 32.0902C237.607 32.0902 235.978 32.3447 234.675 32.8537C233.372 33.3627 232.395 34.0651 231.743 34.9609C231.092 35.8364 230.756 36.8442 230.736 37.9844C230.695 38.9209 230.878 39.7455 231.285 40.4581C231.713 41.1707 232.324 41.8018 233.118 42.3516C233.932 42.8809 234.909 43.3492 236.05 43.7564C237.19 44.1636 238.472 44.5199 239.898 44.8253L245.273 46.0469C248.367 46.7188 251.095 47.6146 253.457 48.7344C255.839 49.8542 257.835 51.1877 259.443 52.7351C261.072 54.2824 262.304 56.0639 263.138 58.0795C263.973 60.0952 264.401 62.3551 264.421 64.8594C264.401 68.8092 263.403 72.1991 261.428 75.0291C259.453 77.8591 256.613 80.0275 252.907 81.5341C249.222 83.0407 244.774 83.794 239.562 83.794C234.329 83.794 229.769 83.0102 225.88 81.4425C221.991 79.8748 218.968 77.4927 216.809 74.2962C214.651 71.0997 213.542 67.0582 213.481 62.1719H227.956C228.079 64.1875 228.618 65.8672 229.575 67.2109C230.532 68.5547 231.845 69.5727 233.515 70.2649C235.205 70.9571 237.159 71.3033 239.378 71.3033C241.414 71.3033 243.145 71.0284 244.57 70.4787C246.016 69.929 247.125 69.1655 247.899 68.1882C248.673 67.2109 249.07 66.0911 249.09 64.8288C249.07 63.648 248.703 62.6402 247.991 61.8054C247.278 60.9503 246.179 60.2173 244.692 59.6065C243.226 58.9754 241.353 58.3951 239.073 57.8658L232.537 56.3388C227.122 55.0968 222.856 53.0914 219.741 50.3224C216.626 47.5331 215.079 43.7666 215.099 39.0227C215.079 35.1544 216.117 31.7644 218.214 28.853C220.311 25.9415 223.213 23.6714 226.918 22.0426C230.624 20.4138 234.848 19.5994 239.592 19.5994C244.438 19.5994 248.642 20.424 252.205 22.0731C255.788 23.7019 258.568 25.9924 260.542 28.9446C262.517 31.8968 263.525 35.3172 263.566 39.206H249.09ZM290.532 83V20.4545H305.65V70.723H331.67V83H290.532Z" fill="#323232"/>
<path d="M354.5 42V83H339V42H354.5Z" fill="#323232"/>
<path d="M354.5 20V32H339V20H354.5Z" fill="#323232"/>
<path d="M365 20H377.5L380 46.5V82.5H365V20Z" fill="#323232"/>
<path d="M403 20L418 20.0001V46.0001V82.5H405L403 56.5V51.5V20Z" fill="#323232"/>
<path d="M401.5 57L418 57V66.984V81L405 82.5L398.5 73L399.5 63L401.5 57Z" fill="#323232"/>
<path d="M443 47H449L447 55.0476L449 64L445 69L442.499 57L441 51L443 47Z" fill="#323232"/>
<path d="M176 60H181.5L192 65.5L187.5 82.5H173L171.5 77.5L172.5 68.5L175 66L176 60Z" fill="#323232"/>
<path d="M140 59L146 58.5L151 66L152.5 73.5L150 82.5H135.5L130 63L136 57.5L140 59Z" fill="#323232"/>
<path d="M377.5 20L385 34L384 36.5L380 46.5L366.5 49.5L367.5 38.5L369.5 20H377.5Z" fill="#323232"/>
<path d="M463 46.5L471 59L458.5 67.5L444.5 47L463 46.5Z" fill="#323232"/>
<path d="M476.5 67L486.5 83H468.5L464 75.5L476.5 67Z" fill="#323232"/>
<path d="M486.5 20.5L464 48.5L446.5 67L447 48L468.5 20.5H486.5Z" fill="#323232"/>
<path d="M432 20L447 20.0001V46.0001V83H432V56.5V51.5V20Z" fill="#323232"/>
<path d="M380 46.5L377.5 20L403 56.5L405 82.5L380 46.5Z" fill="#323232"/>
<path d="M134 20L143.5 61L135.5 82.5L117.5 20H134Z" fill="#323232"/>
<path d="M168.5 20L179 61L173 82.5L155 20H168.5Z" fill="#323232"/>
<path d="M168.5 20L150 82.5H135.5L155 20H168.5Z" fill="#323232"/>
<path d="M206 20L187.5 82.5H173L189 20H206Z" fill="#323232"/>
<rect x="66" y="30.5" width="46" height="17" fill="#323232"/>
<rect x="66" y="57.5" width="46" height="17" fill="#323232"/>
<path d="M5 20.5H17.5L20 47V83H5V20.5Z" fill="#323232"/>
<path d="M43 20.5L58 20.5001V46.5001V83H45L43 57V52V20.5Z" fill="#323232"/>
<path d="M20 47L17.5 20.5L43 57L45 83L20 47Z" fill="#323232"/>
</svg>
