<svg width="2800" height="2346" viewBox="0 0 2800 2346" fill="none" xmlns="http://www.w3.org/2000/svg">
<path d="M1855.68 620.786C1821.86 615.767 1795.59 603.218 1770.91 579.947C1732.52 544.126 1715.84 501.461 1719.49 448.985C1721.09 427.539 1725.89 404.951 1730.23 400.388C1731.37 399.248 1732.29 396.966 1732.29 395.597C1732.29 394 1735.94 386.471 1740.29 379.17C1761.99 342.209 1791.93 318.252 1832.83 305.476C1847.46 300.913 1854.77 300 1883.11 300C1922.41 300 1942.97 304.107 1967.43 316.655C2004.67 335.82 2031.64 367.534 2045.35 408.374C2051.52 426.854 2054.03 468.151 2050.15 492.563C2040.78 552.112 1995.99 600.709 1935.89 616.223C1916.47 621.471 1875.56 623.524 1855.68 620.786ZM1902.76 532.262C1935.21 521.539 1959.66 490.282 1959.43 460.393C1959.2 435.068 1941.38 409.058 1915.1 395.597C1904.58 390.121 1899.79 388.981 1885.39 388.981C1870.99 388.981 1866.2 390.121 1854.77 395.825C1830.09 408.146 1811.81 436.437 1811.35 461.99C1811.12 489.597 1836.49 521.539 1867.11 532.262C1880.59 536.825 1889.05 537.054 1902.76 532.262Z" fill="black"/>
<path d="M890.684 620.786C856.864 615.767 830.586 603.218 805.907 579.947C767.517 544.126 750.836 501.461 754.492 448.985C756.092 427.539 760.89 404.951 765.232 400.388C766.374 399.248 767.288 396.966 767.288 395.597C767.288 394 770.945 386.471 775.286 379.17C796.995 342.209 826.93 318.252 867.833 305.476C882.457 300.913 889.77 300 918.105 300C957.409 300 977.975 304.107 1002.43 316.655C1039.67 335.82 1066.64 367.534 1080.35 408.374C1086.52 426.854 1089.03 468.151 1085.15 492.563C1075.78 552.112 1030.99 600.709 970.891 616.223C951.467 621.471 910.564 623.524 890.684 620.786ZM937.757 532.262C970.205 521.539 994.656 490.282 994.427 460.393C994.199 435.068 976.375 409.058 950.096 395.597C939.585 390.121 934.786 388.981 920.39 388.981C905.994 388.981 901.195 390.121 889.77 395.825C865.091 408.146 846.81 436.437 846.353 461.99C846.124 489.597 871.489 521.539 902.109 532.262C915.591 536.825 924.046 537.054 937.757 532.262Z" fill="black"/>
<path d="M991 448H1808L1806.5 470.5H1007.5L991 448Z" fill="black"/>
<path d="M1392 640V275.5L1414.5 271V645.5L1392 640Z" fill="black"/>
<path d="M1373.27 893.79C1339.56 888.786 1313.36 876.277 1288.75 853.077C1250.48 817.368 1233.85 774.836 1237.49 722.523C1239.09 701.143 1243.87 678.626 1248.2 674.077C1249.34 672.939 1250.25 670.665 1250.25 669.3C1250.25 667.708 1253.89 660.202 1258.22 652.924C1279.87 616.078 1309.71 592.196 1350.49 579.459C1365.07 574.91 1372.36 574 1400.61 574C1439.8 574 1460.3 578.094 1484.68 590.604C1521.81 609.709 1548.7 641.324 1562.37 682.037C1568.52 700.46 1571.02 741.628 1567.15 765.965C1557.81 825.329 1513.16 873.775 1453.24 889.241C1433.87 894.473 1393.09 896.52 1373.27 893.79ZM1420.2 805.541C1452.56 794.851 1476.93 763.691 1476.71 733.895C1476.48 708.649 1458.71 682.72 1432.51 669.3C1422.03 663.842 1417.24 662.704 1402.89 662.704C1388.54 662.704 1383.75 663.842 1372.36 669.528C1347.76 681.81 1329.53 710.013 1329.08 735.487C1328.85 763.008 1354.14 794.851 1384.66 805.541C1398.11 810.09 1406.54 810.317 1420.2 805.541Z" fill="black"/>
<path d="M193.243 1050.61C188.456 1049.7 188 1048.34 188 1035.6C188.228 1016.26 192.787 996.244 200.538 981.914C208.517 967.356 229.262 947.793 244.079 940.969C270.067 928.686 311.101 926.184 321.131 936.192C325.235 940.287 325.69 944.381 326.602 988.283C327.286 1014.44 327.058 1038.55 326.146 1041.51C323.867 1051.06 315.204 1052.2 254.338 1051.97C223.562 1051.75 195.979 1051.06 193.243 1050.61Z" fill="black"/>
<path d="M2480.72 1047.27C2478.68 1045.22 2478 1030.21 2478 994.047V943.325L2483.88 938.776C2488.86 934.682 2493.16 934 2509.46 934C2542.96 934 2566.04 943.325 2589.13 966.071C2607.68 984.494 2616.28 1003.83 2617.87 1029.98L2619 1050H2551.1C2501.54 1050 2482.75 1049.32 2480.72 1047.27Z" fill="black"/>
<path d="M1102.26 1247.18C1099.06 1244.45 1024.15 1211.89 944.664 1178.42C908.349 1163.17 868.151 1146.09 855.589 1140.63C843.027 1135.16 801.002 1117.4 761.945 1101.24L691.142 1072.09L690.457 1032.93L690 994H698.222C706.673 994 731.112 1003.11 797.347 1031.57C816.761 1039.99 877.058 1065.04 930.96 1087.35C985.091 1109.66 1043.56 1134.25 1061.15 1141.99C1078.73 1149.5 1099.52 1158.61 1107.28 1162.03C1115.28 1165.44 1122.13 1169.31 1122.59 1170.91C1123.27 1172.27 1123.04 1190.49 1122.36 1211.21L1120.99 1249H1112.54C1107.97 1249 1103.4 1248.09 1102.26 1247.18Z" fill="black"/>
<path d="M1686.34 1379.07C1684.52 1360.81 1684.52 1224.95 1686.57 1196.18L1687.94 1174.04L1745.18 1149.61C1873.12 1095.27 1893.19 1086.82 1936.98 1068.78C1962.06 1058.28 2009.04 1038.18 2041.2 1023.8C2079.74 1006.9 2102.77 998 2108.02 998H2116V1106.23V1214.22L2098.44 1222.44C2079.51 1230.89 1871.3 1319.71 1853.51 1326.79C1847.58 1329.07 1838.46 1333.18 1832.98 1335.69C1827.51 1338.2 1817.93 1342.31 1811.54 1344.82C1805.39 1347.34 1777.56 1359.21 1749.97 1371.08C1722.37 1383.18 1697.06 1393 1693.87 1393C1688.17 1393 1687.71 1392.09 1686.34 1379.07Z" fill="black"/>
<path d="M136.273 1464.78C102.555 1459.75 76.3558 1447.16 51.7508 1423.82C13.4764 1387.88 -3.15468 1345.09 0.490497 1292.45C2.08526 1270.93 6.86945 1248.28 11.1981 1243.7C12.3372 1242.56 13.2486 1240.27 13.2486 1238.89C13.2486 1237.29 16.8937 1229.74 21.2224 1222.42C42.8657 1185.34 72.7106 1161.31 113.491 1148.49C128.072 1143.92 135.362 1143 163.612 1143C202.798 1143 223.302 1147.12 247.679 1159.71C284.814 1178.93 311.698 1210.74 325.367 1251.71C331.518 1270.25 334.024 1311.67 330.151 1336.16C320.811 1395.89 276.157 1444.64 216.239 1460.21C196.874 1465.47 156.094 1467.53 136.273 1464.78ZM183.205 1375.98C215.556 1365.23 239.933 1333.87 239.705 1303.89C239.478 1278.49 221.707 1252.4 195.508 1238.89C185.028 1233.4 180.243 1232.26 165.89 1232.26C151.538 1232.26 146.753 1233.4 135.362 1239.12C110.757 1251.48 92.5312 1279.86 92.0755 1305.49C91.8477 1333.19 117.136 1365.23 147.665 1375.98C161.106 1380.56 169.536 1380.79 183.205 1375.98Z" fill="black"/>
<path d="M2604.27 1465.79C2570.56 1460.77 2544.36 1448.22 2519.75 1424.95C2481.48 1389.13 2464.85 1346.46 2468.49 1293.99C2470.09 1272.54 2474.87 1249.95 2479.2 1245.39C2480.34 1244.25 2481.25 1241.97 2481.25 1240.6C2481.25 1239 2484.89 1231.47 2489.22 1224.17C2510.87 1187.21 2540.71 1163.25 2581.49 1150.48C2596.07 1145.91 2603.36 1145 2631.61 1145C2670.8 1145 2691.3 1149.11 2715.68 1161.66C2752.81 1180.82 2779.7 1212.53 2793.37 1253.37C2799.52 1271.85 2802.02 1313.15 2798.15 1337.56C2788.81 1397.11 2744.16 1445.71 2684.24 1461.22C2664.87 1466.47 2624.09 1468.52 2604.27 1465.79ZM2651.2 1377.26C2683.56 1366.54 2707.93 1335.28 2707.71 1305.39C2707.48 1280.07 2689.71 1254.06 2663.51 1240.6C2653.03 1235.12 2648.24 1233.98 2633.89 1233.98C2619.54 1233.98 2614.75 1235.12 2603.36 1240.83C2578.76 1253.15 2560.53 1281.44 2560.08 1306.99C2559.85 1334.6 2585.14 1366.54 2615.66 1377.26C2629.11 1381.83 2637.54 1382.05 2651.2 1377.26Z" fill="black"/>
<path d="M1029.56 1368C990.137 1351.14 939.317 1329.25 916.755 1319.23C848.387 1289.37 718.031 1234.66 702.078 1228.97L690 1224.64V1185.43V1146H697.748C707.32 1146 715.296 1148.74 757.457 1167.2C800.529 1185.89 988.314 1265.89 1060.33 1296.2C1090.41 1308.97 1116.62 1320.14 1118.44 1321.28C1121.18 1322.87 1122.09 1330.17 1122.54 1361.16L1123 1399H1112.29C1103.4 1398.77 1087.68 1393.07 1029.56 1368Z" fill="black"/>
<path d="M1070.76 1539.44C1052.52 1531.71 1033.14 1523.07 1027.44 1520.57C1015.81 1515.11 931.907 1479.4 853.019 1445.97C824.291 1433.92 795.108 1421.41 788.496 1418.45C766.38 1408.44 694.332 1378.88 692.28 1378.88C690.912 1378.88 690 1362.73 690 1337.94V1297H697.752C701.856 1297 713.484 1300.64 723.288 1305.19C740.16 1312.92 834.551 1353.86 884.939 1375.46C897.479 1380.92 944.675 1400.71 989.819 1419.36C1109.06 1469.39 1119.32 1473.72 1121.15 1477.13C1122.06 1478.95 1122.29 1496.91 1121.6 1517.16L1120.23 1554L1112.03 1553.77C1107.24 1553.77 1090.14 1547.86 1070.76 1539.44Z" fill="black"/>
<path d="M1686 1513.46V1474.14L1774.32 1436.43C1822.82 1415.63 1885.28 1389.34 1912.74 1377.69C1964.91 1355.74 2020.28 1331.97 2069.7 1309.8C2087.32 1302.03 2102.19 1297 2106.99 1297H2115L2114.54 1336.09L2113.86 1375.17L2076.79 1392.09C2056.2 1401.23 1963.99 1441.23 1871.56 1481C1748 1534.03 1701.33 1553 1694.92 1553H1686V1513.46Z" fill="black"/>
<path d="M1101.6 1710.35C1089.06 1704.38 989.629 1661 935.124 1637.59C878.11 1613.04 762.258 1562.77 745.382 1555.2C741.505 1553.36 737.628 1551.99 736.944 1551.99C736.26 1551.99 731.243 1549.92 725.769 1547.62C720.524 1545.33 710.262 1540.74 703.192 1537.53L689.965 1531.56V1506.77C689.965 1493.23 689.28 1475.1 688.368 1466.61L687 1451H696.35C701.595 1451 711.858 1453.98 721.208 1458.11C729.646 1462.02 758.381 1474.41 784.608 1485.43C811.062 1496.67 854.62 1515.49 881.531 1527.43C962.49 1563.23 1033.19 1593.99 1074.24 1611.66C1095.67 1620.84 1115.29 1629.33 1118.25 1630.71C1123.27 1633 1123.27 1633.46 1122.81 1672.25L1122.13 1711.5L1114.15 1711.96C1109.81 1712.19 1104.11 1711.5 1101.6 1710.35Z" fill="black"/>
<path d="M1686.37 1673.97C1687.05 1652.79 1688.19 1635.03 1689.11 1634.12C1689.79 1633.21 1708.5 1624.79 1730.4 1615.22C1752.31 1605.66 1774.44 1595.87 1779.46 1593.59C1798.85 1584.48 1858.86 1558.75 1944.88 1522.31C1973.17 1510.47 2018.35 1490.66 2045.27 1478.59C2075.16 1465.16 2098.66 1456.05 2105.28 1455.37L2116 1454L2115.54 1493.39L2114.86 1532.56L2061.24 1556.47C2011.73 1578.33 1920.46 1617.95 1764.63 1684.9C1722.65 1702.89 1699.15 1712 1693.44 1712H1685L1686.37 1673.97Z" fill="black"/>
<path d="M1100.21 1868.57C1089.96 1862.38 978.515 1813.62 813.063 1742.64C769.763 1724.1 731.477 1707.62 727.603 1706.01C723.956 1704.41 713.929 1700.29 705.497 1696.86L690 1690.44V1650.61V1611H697.52C704.585 1611 724.184 1618.56 806.226 1652.9C875.278 1681.74 975.096 1725.02 1084.71 1773.78L1123 1790.72V1831.48V1872H1114.57C1109.78 1872 1103.4 1870.4 1100.21 1868.57Z" fill="black"/>
<path d="M1685 1831.37V1793.74L1694.12 1789.18C1710.31 1780.97 1809.06 1738.33 1933.57 1685.88C1961.84 1674.02 2001.75 1656.91 2022.5 1647.79C2043.25 1638.9 2069.48 1627.27 2081.11 1622.25C2093.65 1617.01 2104.83 1613.58 2108.47 1614.04L2114.86 1614.72L2115.54 1654.18L2116 1693.4L2103 1699.33C2095.7 1702.52 2074.95 1711.19 2056.71 1718.94C2025.92 1731.71 1909.39 1781.2 1764.36 1843C1720.35 1861.7 1700.73 1869 1694.12 1869H1685V1831.37Z" fill="black"/>
<path d="M218.7 1717.19C202.254 1708.7 197 1698.14 197 1673.34C197 1642.12 208.193 1629.03 236.974 1627.2C258.903 1625.82 271.923 1631.56 280.603 1646.48C286.086 1655.67 286.543 1658.42 285.629 1677.02C284.944 1700.43 281.517 1707.09 266.441 1715.58C255.477 1722.01 229.436 1722.93 218.7 1717.19Z" fill="black"/>
<path d="M2535.75 1718.11C2520.18 1711.02 2514 1698.9 2514 1676.04C2514 1657.29 2519.49 1644.26 2530.25 1636.49C2537.12 1631.69 2540.56 1631 2559.1 1631C2576.73 1631 2581.08 1631.69 2586.34 1635.8C2599.16 1645.18 2602.14 1651.58 2602.83 1672.15C2603.97 1694.33 2599.62 1704.85 2585.88 1714.22C2575.81 1721.08 2546.97 1723.37 2535.75 1718.11Z" fill="black"/>
<path fill-rule="evenodd" clip-rule="evenodd" d="M1183.65 2183.05C1186.21 2184.11 1188.1 2184.99 1188.69 2185.45C1190.06 2186.37 1199.64 2190.71 1210.38 2195.04C1284.35 2225.17 1302.62 2237.73 1345.77 2287.49C1364.49 2308.95 1386.18 2338.85 1386.18 2342.96C1386.18 2344.1 1393.26 2345.02 1401.71 2345.02C1413.81 2345.02 1417.69 2344.1 1419.97 2341.14C1420.72 2339.89 1422.62 2336.95 1424.97 2333.32L1424.97 2333.31C1426.93 2330.27 1429.21 2326.76 1431.39 2323.33C1449.65 2294.8 1486.64 2255.99 1517.23 2232.71C1546.92 2210.56 1590.3 2185.45 1629.34 2168.33L1638.81 2164.05L1638 2163.42L1759.04 2113L1759.55 2113.2C1782.04 2102.82 1834.68 2080.06 1871.35 2064.93C1930.03 2040.96 1969.76 2024.52 2002.64 2010.6C2015.49 2005.21 2038.26 1995.86 2059.18 1987.27L2059.31 1987.22C2063.63 1985.45 2067.88 1983.71 2071.93 1982.04C2074 1981.19 2076.02 1980.36 2077.98 1979.55C2140.54 1953.99 2175.47 1939.38 2222.96 1919.29C2245.57 1909.7 2271.82 1898.74 2281.18 1895.09C2285.53 1893.29 2290.22 1891.39 2294.36 1889.71L2294.38 1889.71C2299.16 1887.77 2303.2 1886.13 2305.16 1885.28C2306.93 1884.55 2310.74 1882.91 2315.6 1880.84L2315.67 1880.81C2321.45 1878.33 2328.7 1875.23 2335.75 1872.26C2354.02 1864.5 2359.73 1861.08 2361.55 1856.51C2363.15 1852.86 2363.38 1741.01 2362.47 1527.8C2361.78 1350.2 2361.1 1071.03 2361.1 907.583V610.143H2354.47C2350.82 610.143 2340.32 613.567 2331.19 617.905C2294.88 634.34 2118.85 709.214 1975.24 769.249C1964.38 773.846 1949.81 779.942 1935.77 785.821L1935.74 785.829C1924.68 790.457 1913.95 794.95 1905.6 798.468C1886.88 806.458 1852.86 820.611 1830.26 829.97C1807.65 839.329 1775.23 852.797 1758.34 860.102C1741.44 867.178 1711.53 879.734 1692.13 887.951C1611.07 922.192 1567.92 948.672 1527.51 988.848C1498.06 1018.52 1480.7 1042.95 1463.58 1079.24C1450.11 1107.55 1436.18 1149.1 1429.1 1180.83L1423.85 1204.79L1422.71 1742.38L1421.34 2279.96L1415.4 2297.08C1412.21 2306.44 1408.1 2317.17 1406.5 2320.59L1403.53 2326.98L1400.34 2320.82C1398.51 2317.62 1394.86 2308.95 1392.34 2301.87L1387.32 2289.09L1386.18 1753.79C1385.04 1266.66 1384.58 1216.44 1380.93 1196.35C1365.86 1108.01 1334.58 1044.09 1280.24 989.989C1227.27 937.258 1186.86 914.203 1035.71 850.971C941.189 811.252 897.809 792.762 831.368 764.227C804.427 752.585 772.006 738.661 759.448 733.411C746.891 728.16 694.606 705.561 643.006 683.191C502.591 622.242 460.124 605.121 451.676 606.034L444.37 606.719L443.685 1233.56L443 1860.39L467.658 1870.89C481.129 1876.6 535.469 1899.43 588.21 1921.57C640.951 1943.49 690.725 1964.71 698.944 1968.37C717.666 1976.58 751.914 1990.97 856.483 2033.88C865.714 2037.62 875.761 2041.77 884.096 2045.22C891.017 2048.07 896.756 2050.44 899.863 2051.69C903.232 2053.15 908.424 2055.27 914.107 2057.59C919.979 2059.99 926.375 2062.61 931.828 2064.93C942.559 2069.26 965.619 2079.08 983.199 2087.07C993.813 2091.75 1004.51 2096.44 1012.23 2099.82C1017.29 2102.04 1021.07 2103.69 1022.7 2104.42C1026.58 2106.24 1033.43 2109.21 1037.77 2111.04C1041.88 2112.86 1047.81 2115.38 1050.78 2116.29L1051.11 2116.42L1052.32 2116L1185 2182.18L1183.65 2183.05ZM1631.16 1977.73C1651.49 1969.05 1678.88 1957.64 1692.13 1952.39C1695.84 1950.85 1700.86 1948.79 1706.66 1946.4C1721.53 1940.3 1741.59 1932.05 1758.34 1925C1781.63 1915.41 1814.05 1902.17 1830.26 1895.55C1841.08 1891.04 1855.66 1885.05 1868.46 1879.79L1868.64 1879.71C1875.22 1877.01 1881.32 1874.5 1886.2 1872.49C1896.75 1867.97 1922.29 1857.43 1949.76 1846.09L1949.81 1846.07C1959.76 1841.97 1969.97 1837.75 1979.81 1833.69C2039.62 1808.8 2081.18 1791.46 2101.96 1782.1C2127.53 1770.91 2168.17 1753.33 2180.73 1748.08C2188.94 1744.66 2200.36 1739.41 2206.53 1736.44L2217.26 1730.96V1294.73C2217.26 946.618 2216.57 858.732 2214.52 859.646C2212.92 860.33 2174.1 877.222 2128.21 897.311C2082.32 917.399 2023.41 942.737 1996.93 953.694C1970.67 964.651 1924.78 984.054 1895.33 996.609C1882.22 1002.09 1867.81 1008.17 1854.57 1013.74L1854.44 1013.8C1837.99 1020.73 1823.38 1026.88 1815.42 1030.17C1700.57 1077.87 1688.24 1083.81 1664.5 1102.76C1636.42 1125.36 1620.43 1145.9 1607.65 1175.8C1606.46 1178.63 1605.36 1181.03 1604.36 1183.24C1603.34 1185.47 1602.42 1187.51 1601.57 1189.58C1592.87 1210.88 1592.83 1235.72 1592.3 1516.5C1592.25 1543.86 1592.19 1573.64 1592.12 1606.1C1591.89 1819.08 1592.12 1993.48 1592.81 1993.48C1593.72 1993.48 1610.84 1986.4 1631.16 1977.73ZM1211.52 1549.49C1211.52 1216.66 1211.52 1216.21 1206.72 1200C1196.9 1166.9 1182.29 1142.02 1158.55 1118.05C1143.48 1102.76 1136.4 1096.82 1124.98 1089.74C1113.11 1082.21 1071.79 1062.35 1052.84 1054.82C1037.31 1048.66 1028.86 1045 1008.31 1035.87C1004.66 1034.27 991.19 1028.57 978.633 1023.32C966.076 1018.07 946.669 1009.62 935.253 1004.6C924.065 999.577 897.809 988.163 877.032 979.489C856.255 970.814 836.391 962.368 832.51 960.542C812.418 951.868 790.271 942.509 760.59 930.182C723.374 914.659 692.779 901.648 636.157 876.538L597.343 859.189L596.658 1292.22C596.429 1530.31 596.658 1726.4 597.114 1727.54C598.256 1730.96 754.882 1798.76 992.332 1898.74C1036.4 1917.23 1085.71 1938.01 1101.92 1944.86C1130.24 1956.73 1176.13 1976.58 1191.2 1983.43C1192.15 1983.82 1193.21 1984.27 1194.31 1984.74C1197.71 1986.17 1201.51 1987.77 1203.75 1988.46L1209.23 1990.51L1210.38 1936.64C1211.06 1906.96 1211.52 1732.79 1211.52 1549.49Z" fill="black"/>
<path d="M1370.95 346.688C1334.59 341.264 1306.34 327.702 1279.8 302.551C1238.53 263.838 1220.6 217.728 1224.53 161.015C1226.25 137.837 1231.41 113.426 1236.08 108.494C1237.3 107.261 1238.29 104.796 1238.29 103.316C1238.29 101.59 1242.22 93.453 1246.88 85.5626C1270.22 45.6169 1302.4 19.7263 1346.38 5.91793C1362.1 0.986372 1369.96 0 1400.43 0C1442.68 0 1464.79 4.43837 1491.08 18.0002C1531.12 38.7127 1560.11 72.9871 1574.85 117.124C1581.48 137.097 1584.18 181.728 1580.01 208.112C1569.93 272.469 1521.78 324.99 1457.17 341.757C1436.29 347.428 1392.32 349.647 1370.95 346.688ZM1421.55 251.016C1456.44 239.427 1482.72 205.646 1482.48 173.344C1482.23 145.974 1463.07 117.864 1434.82 103.316C1423.52 97.3983 1418.36 96.1654 1402.88 96.1654C1387.4 96.1654 1382.25 97.3983 1369.96 103.563C1343.43 116.878 1323.78 147.454 1323.29 175.07C1323.04 204.906 1350.31 239.427 1383.23 251.016C1397.72 255.948 1406.81 256.195 1421.55 251.016Z" fill="black"/>
</svg>
