<svg width="3021" height="2541" viewBox="0 0 3021 2541" fill="none" xmlns="http://www.w3.org/2000/svg">
<path d="M1476.95 346.688C1440.59 341.264 1412.34 327.702 1385.8 302.551C1344.53 263.838 1326.6 217.728 1330.53 161.015C1332.25 137.837 1337.41 113.426 1342.08 108.494C1343.3 107.261 1344.29 104.796 1344.29 103.316C1344.29 101.59 1348.22 93.453 1352.88 85.5626C1376.22 45.6169 1408.4 19.7263 1452.38 5.91793C1468.1 0.986372 1475.96 0 1506.43 0C1548.68 0 1570.79 4.43837 1597.08 18.0002C1637.12 38.7127 1666.11 72.9871 1680.85 117.124C1687.48 137.097 1690.18 181.728 1686.01 208.112C1675.93 272.469 1627.78 324.99 1563.17 341.757C1542.29 347.428 1498.32 349.647 1476.95 346.688ZM1527.55 251.016C1562.44 239.427 1588.72 205.646 1588.48 173.344C1588.23 145.974 1569.07 117.864 1540.82 103.316C1529.52 97.3983 1524.36 96.1654 1508.88 96.1654C1493.4 96.1654 1488.25 97.3983 1475.96 103.563C1449.43 116.878 1429.78 147.454 1429.29 175.07C1429.04 204.906 1456.31 239.427 1489.23 251.016C1503.72 255.948 1512.81 256.195 1527.55 251.016Z" fill="black"/>
<path d="M1113 286.367L1339.24 195L1354 224.633L1132.67 316L1113 286.367Z" fill="black"/>
<path d="M1687.84 197L1878 281.261L1860.83 311L1672 226.739L1687.84 197Z" fill="black"/>
<path d="M1998.36 543.688C1961.9 538.264 1933.57 524.702 1906.96 499.551C1865.57 460.838 1847.59 414.728 1851.53 358.015C1853.25 334.837 1858.43 310.426 1863.11 305.494C1864.34 304.261 1865.33 301.796 1865.33 300.316C1865.33 298.59 1869.27 290.453 1873.95 282.563C1897.35 242.617 1929.62 216.726 1973.72 202.918C1989.49 197.986 1997.37 197 2027.92 197C2070.29 197 2092.46 201.438 2118.82 215C2158.98 235.713 2188.05 269.987 2202.83 314.124C2209.48 334.097 2212.19 378.728 2208 405.112C2197.9 469.469 2149.62 521.99 2084.83 538.757C2063.89 544.428 2019.79 546.647 1998.36 543.688ZM2049.1 448.016C2084.09 436.427 2110.45 402.646 2110.2 370.344C2109.95 342.974 2090.74 314.864 2062.41 300.316C2051.08 294.398 2045.9 293.165 2030.38 293.165C2014.86 293.165 2009.69 294.398 1997.37 300.563C1970.76 313.878 1951.06 344.454 1950.56 372.07C1950.32 401.906 1977.66 436.427 2010.67 448.016C2025.21 452.948 2034.32 453.195 2049.1 448.016Z" fill="black"/>
<path d="M949.356 558.692C912.896 553.283 884.565 539.76 857.959 514.682C816.572 476.08 798.589 430.103 802.53 373.553C804.255 350.441 809.428 326.1 814.109 321.183C815.341 319.953 816.326 317.495 816.326 316.019C816.326 314.298 820.268 306.185 824.948 298.317C848.352 258.486 880.624 232.67 924.721 218.901C940.487 213.984 948.37 213 978.918 213C1021.29 213 1043.46 217.426 1069.82 230.948C1109.98 251.601 1139.05 285.777 1153.83 329.788C1160.48 349.703 1163.19 394.206 1159 420.514C1148.9 484.686 1100.62 537.056 1035.83 553.775C1014.89 559.43 970.788 561.643 949.356 558.692ZM1000.1 463.295C1035.09 451.739 1061.45 418.055 1061.2 385.846C1060.95 358.555 1041.74 330.526 1013.41 316.019C1002.08 310.118 996.902 308.889 981.382 308.889C965.861 308.889 960.688 310.118 948.37 316.265C921.764 329.542 902.056 360.03 901.564 387.567C901.317 417.317 928.662 451.739 961.673 463.295C976.208 468.212 985.323 468.458 1000.1 463.295Z" fill="black"/>
<path d="M1147.23 456.467L1873.38 454L1898 491H1130L1147.23 456.467Z" fill="black"/>
<path d="M792.586 2471.53C767.478 2465.62 746.309 2448.15 734.986 2423.78C728.832 2410.49 728.093 2406.55 728.093 2381.94C728.093 2356.1 728.586 2353.89 736.216 2338.38C746.063 2318.45 763.54 2301.71 782.493 2294.82C793.078 2290.64 801.694 2289.65 822.617 2289.65C849.448 2289.65 861.509 2292.12 878.74 2301.22L886.371 2305.16L921.817 2284.24C952.094 2266.03 994.925 2241.42 1037.02 2217.79C1058.93 2205.49 1080.34 2192.69 1093.63 2183.83C1101.02 2178.91 1111.11 2173 1115.79 2170.54C1120.46 2168.08 1127.6 2164.39 1131.79 2162.42L1138.93 2158.48L1133.26 2156.27C1130.06 2155.28 1123.66 2152.57 1119.23 2150.61C1114.56 2148.64 1107.17 2145.44 1102.99 2143.47C1098.56 2141.5 1079.36 2133.13 1060.4 2124.76C1041.45 2116.15 1016.59 2105.57 1005.02 2100.89C993.448 2095.97 977.941 2089.82 970.556 2086.62C963.171 2083.67 942.002 2074.81 923.786 2067.42C811.048 2021.15 774.124 2005.65 753.94 1996.79C745.078 1992.85 691.416 1969.96 634.554 1946.34C577.693 1922.47 519.108 1897.86 504.585 1891.7L478 1880.38L478.738 1204.58L479.477 528.775L487.354 528.037C496.462 527.053 542.246 545.51 693.632 611.22C749.263 635.339 805.632 659.703 819.171 665.363C832.709 671.024 867.663 686.036 896.709 698.588C968.341 729.351 1015.11 749.285 1117.02 792.107C1279.97 860.278 1323.54 885.135 1380.65 941.985C1439.23 1000.31 1472.96 1069.22 1489.2 1164.46C1493.14 1186.12 1493.64 1240.26 1494.87 1765.45L1496.1 2342.57L1501.51 2356.35C1504.22 2363.98 1508.16 2373.33 1510.13 2376.78L1513.57 2383.42L1516.77 2376.53C1518.5 2372.84 1522.93 2361.27 1526.37 2351.18L1532.77 2332.72L1534.25 1753.15L1535.48 1173.57L1541.14 1147.73C1548.77 1113.52 1563.79 1068.73 1578.31 1038.21C1596.77 999.081 1615.48 972.748 1647.24 940.755C1690.81 897.44 1737.33 868.892 1824.71 831.976C1845.64 823.117 1877.88 809.581 1896.1 801.952C1914.31 794.076 1949.27 779.556 1973.64 769.466C1998.01 759.375 2034.68 744.117 2054.87 735.503C2075.3 726.89 2109.02 712.862 2129.95 704.002C2284.78 639.276 2474.56 558.554 2513.7 540.834C2523.55 536.158 2534.87 532.467 2538.81 532.467H2545.95V853.141C2545.95 1029.35 2546.69 1330.34 2547.42 1521.81C2548.41 1751.67 2548.16 1872.26 2546.44 1876.2C2544.47 1881.12 2538.32 1884.81 2518.62 1893.18C2504.59 1899.09 2489.82 1905.49 2485.64 1907.21C2481.7 1908.93 2469.89 1913.61 2459.79 1917.79C2449.7 1921.73 2421.39 1933.54 2397.02 1943.88C2345.82 1965.53 2308.16 1981.29 2240.72 2008.85C2214.38 2019.68 2177.7 2034.69 2159.48 2042.32C2124.04 2057.33 2081.21 2075.05 2017.95 2100.89C1967.24 2121.81 1888.22 2156.27 1885.76 2158.73C1883.54 2160.94 1926.38 2186.78 2014.99 2236.5C2052.65 2257.66 2095.73 2282.76 2110.99 2291.87C2134.13 2306.14 2139.05 2308.36 2142.25 2305.65C2144.22 2303.93 2150.87 2299.99 2157.02 2296.79C2167.11 2291.38 2171.05 2290.89 2202.56 2290.89C2235.05 2290.89 2237.76 2291.13 2249.58 2297.53C2265.58 2305.9 2281.08 2321.89 2289.45 2338.88C2295.61 2351.43 2296.1 2354.87 2296.1 2381.94C2296.1 2409.26 2295.61 2412.46 2289.21 2425.5C2280.59 2442.98 2262.13 2459.96 2243.67 2467.34C2231.85 2472.02 2224.96 2472.76 2200.1 2473C2165.88 2473 2155.3 2469.56 2136.1 2451.84C2119.61 2436.58 2107.79 2410.49 2107.79 2389.08C2107.79 2381.94 2106.31 2380.71 2082.68 2368.41C2068.65 2361.27 2006.87 2329.03 1945.33 2297.04C1883.79 2264.8 1819.05 2231.33 1801.82 2222.47L1770.07 2206.47L1757.02 2212.38C1714.93 2230.84 1668.16 2257.91 1636.16 2281.78C1603.17 2306.88 1563.3 2348.72 1543.6 2379.48C1538.44 2387.6 1532.77 2396.22 1531.3 2398.68C1528.84 2401.88 1524.65 2402.86 1511.6 2402.86C1502.5 2402.86 1494.87 2401.88 1494.87 2400.65C1494.87 2396.22 1471.48 2363.98 1451.3 2340.84C1404.77 2287.19 1385.08 2273.66 1305.33 2241.17C1293.76 2236.5 1283.42 2231.82 1281.94 2230.84C1280.71 2229.85 1274.06 2227.14 1267.17 2224.68C1260.53 2222.22 1252.4 2219.27 1249.45 2217.79C1245.26 2215.58 1241.08 2215.82 1233.45 2218.28C1222.13 2221.98 1102.49 2282.03 1039.48 2315.5C1018.56 2326.82 982.371 2345.27 959.233 2356.84L917.14 2378.01L915.909 2393.76C911.971 2442.73 873.325 2474.73 819.171 2473.99C809.817 2473.74 797.755 2472.76 792.586 2471.53ZM1758.99 2006.88C1780.9 1997.53 1810.44 1985.22 1824.71 1979.56C1838.99 1973.66 1870.99 1960.61 1896.1 1950.03C1921.21 1939.69 1956.16 1925.42 1973.64 1918.28C1991.36 1910.9 2018.44 1899.83 2033.95 1893.43C2049.45 1886.78 2094.99 1868.08 2134.87 1851.59C2199.36 1824.76 2244.16 1806.06 2266.56 1795.97C2294.13 1783.91 2337.95 1764.96 2351.48 1759.3C2360.35 1755.61 2372.65 1749.95 2379.3 1746.75L2390.87 1740.84V1270.54C2390.87 895.225 2390.13 800.475 2387.92 801.459C2386.19 802.198 2344.35 820.409 2294.87 842.067C2245.39 863.724 2181.88 891.041 2153.33 902.855C2125.02 914.668 2075.55 935.586 2043.79 949.122C2012.04 962.412 1973.14 978.901 1957.64 985.3C1833.82 1036.74 1820.53 1043.13 1794.93 1063.56C1764.65 1087.93 1747.42 1110.07 1733.64 1142.31C1716.41 1183.17 1717.88 1142.81 1716.9 1606.22C1716.65 1835.84 1716.9 2023.86 1717.64 2023.86C1718.62 2023.86 1737.08 2016.23 1758.99 2006.88ZM1306.56 1545.19C1306.56 1186.37 1306.56 1185.88 1301.39 1168.4C1290.8 1132.72 1275.05 1105.89 1249.45 1080.05C1233.2 1063.56 1225.57 1057.16 1213.26 1049.53C1200.46 1041.41 1155.91 1020 1135.48 1011.88C1118.74 1005.23 1109.63 1001.3 1087.48 991.452C1083.54 989.73 1069.02 983.577 1055.48 977.916C1041.94 972.256 1021.02 963.15 1008.71 957.736C996.648 952.322 968.341 940.016 945.94 930.664C923.54 921.312 902.125 912.206 897.94 910.238C876.279 900.886 852.402 890.795 820.401 877.506C780.278 860.771 747.293 846.743 686.247 819.671L644.401 800.967L643.662 1267.83C643.416 1524.52 643.662 1735.92 644.155 1737.15C645.385 1740.84 814.248 1813.93 1070.25 1921.73C1117.76 1941.66 1170.93 1964.06 1188.4 1971.44C1218.93 1984.24 1268.4 2005.65 1284.65 2013.03C1288.83 2014.76 1294.99 2017.46 1298.19 2018.45L1304.1 2020.66L1305.33 1962.58C1306.07 1930.59 1306.56 1742.81 1306.56 1545.19Z" fill="black"/>
<path d="M208.658 1008.5C203.492 1007.51 203 1006.03 203 992.252C203.246 971.333 208.166 949.674 216.53 934.169C225.14 918.418 247.527 897.252 263.517 889.868C291.562 876.578 335.843 873.871 346.667 884.7C351.095 889.13 351.587 893.56 352.571 941.06C353.309 969.364 353.063 995.452 352.079 998.651C349.619 1008.99 340.271 1010.22 274.587 1009.97C241.377 1009.73 211.61 1008.99 208.658 1008.5Z" fill="black"/>
<path d="M2674.95 1005.04C2672.74 1002.81 2672 986.506 2672 947.224V892.129L2678.39 887.188C2683.79 882.741 2688.45 882 2706.14 882C2742.48 882 2767.53 892.129 2792.58 916.835C2812.72 936.847 2822.05 957.847 2823.77 986.259L2825 1008H2751.32C2697.54 1008 2677.16 1007.26 2674.95 1005.04Z" fill="black"/>
<path d="M1188.63 1220.03C1185.18 1217.07 1104.38 1181.83 1018.66 1145.61C979.494 1129.1 936.139 1110.61 922.591 1104.7C909.043 1098.79 863.718 1079.56 821.595 1062.07L745.232 1030.52L744.493 988.139L744 946H752.868C761.982 946 788.34 955.857 859.776 986.661C880.715 995.779 945.746 1022.89 1003.88 1047.04C1062.26 1071.19 1125.32 1097.8 1144.29 1106.18C1163.26 1114.31 1185.67 1124.17 1194.05 1127.86C1202.67 1131.56 1210.06 1135.75 1210.55 1137.48C1211.29 1138.95 1211.05 1158.67 1210.31 1181.09L1208.83 1222H1199.72C1194.79 1222 1189.86 1221.01 1188.63 1220.03Z" fill="black"/>
<path d="M1819.45 1361.98C1817.48 1342.28 1817.48 1195.77 1819.69 1164.74L1821.17 1140.85L1882.93 1114.51C2020.96 1055.9 2042.61 1046.79 2089.85 1027.34C2116.92 1016.01 2167.6 994.339 2202.3 978.825C2243.88 960.603 2268.73 951 2274.39 951H2283V1067.72V1184.19L2264.05 1193.06C2243.63 1202.17 2018.99 1297.96 1999.8 1305.59C1993.4 1308.05 1983.56 1312.48 1977.66 1315.19C1971.75 1317.9 1961.42 1322.33 1954.53 1325.04C1947.88 1327.75 1917.87 1340.56 1888.09 1353.36C1858.32 1366.41 1831.01 1377 1827.57 1377C1821.42 1377 1820.92 1376.02 1819.45 1361.98Z" fill="black"/>
<path d="M147.356 1454.69C110.896 1449.26 82.5654 1435.7 55.9595 1410.55C14.5724 1371.84 -3.41124 1325.73 0.530386 1269.02C2.25485 1245.84 7.42811 1221.43 12.1088 1216.49C13.3405 1215.26 14.326 1212.8 14.326 1211.32C14.326 1209.59 18.2676 1201.45 22.9483 1193.56C46.3517 1153.62 78.6238 1127.73 122.721 1113.92C138.487 1108.99 146.37 1108 176.918 1108C219.29 1108 241.462 1112.44 267.822 1126C307.977 1146.71 337.047 1180.99 351.828 1225.12C358.479 1245.1 361.189 1289.73 357.001 1316.11C346.901 1380.47 298.616 1432.99 233.825 1449.76C212.885 1455.43 168.788 1457.65 147.356 1454.69ZM198.104 1359.02C233.086 1347.43 259.446 1313.65 259.199 1281.34C258.953 1253.97 239.738 1225.86 211.407 1211.32C200.075 1205.4 194.902 1204.17 179.382 1204.17C163.861 1204.17 158.688 1205.4 146.37 1211.56C119.764 1224.88 100.056 1255.45 99.5636 1283.07C99.3172 1312.91 126.662 1347.43 159.673 1359.02C174.208 1363.95 183.323 1364.19 198.104 1359.02Z" fill="black"/>
<path d="M2809.95 1455.69C2773.59 1450.28 2745.34 1436.76 2718.8 1411.68C2677.53 1373.08 2659.6 1327.1 2663.53 1270.55C2665.25 1247.44 2670.41 1223.1 2675.08 1218.18C2676.3 1216.95 2677.29 1214.49 2677.29 1213.02C2677.29 1211.3 2681.22 1203.18 2685.88 1195.32C2709.22 1155.49 2741.4 1129.67 2785.38 1115.9C2801.1 1110.98 2808.96 1110 2839.43 1110C2881.68 1110 2903.79 1114.43 2930.08 1127.95C2970.12 1148.6 2999.11 1182.78 3013.85 1226.79C3020.48 1246.7 3023.18 1291.21 3019.01 1317.51C3008.93 1381.69 2960.78 1434.06 2896.17 1450.77C2875.29 1456.43 2831.32 1458.64 2809.95 1455.69ZM2860.55 1360.3C2895.44 1348.74 2921.72 1315.06 2921.48 1282.85C2921.23 1255.55 2902.07 1227.53 2873.82 1213.02C2862.52 1207.12 2857.36 1205.89 2841.88 1205.89C2826.4 1205.89 2821.25 1207.12 2808.96 1213.27C2782.43 1226.54 2762.78 1257.03 2762.29 1284.57C2762.04 1314.32 2789.31 1348.74 2822.23 1360.3C2836.72 1365.21 2845.81 1365.46 2860.55 1360.3Z" fill="black"/>
<path d="M1111.01 1350.55C1068.4 1332.35 1013.47 1308.74 989.084 1297.92C915.189 1265.7 774.297 1206.67 757.055 1200.52L744 1195.85V1153.55V1111H752.375C762.72 1111 771.341 1113.95 816.909 1133.87C863.463 1154.04 1066.43 1240.37 1144.26 1273.08C1176.78 1286.85 1205.1 1298.9 1207.07 1300.13C1210.03 1301.85 1211.01 1309.72 1211.51 1343.17L1212 1384H1200.42C1190.82 1383.75 1173.82 1377.61 1111.01 1350.55Z" fill="black"/>
<path d="M1155.61 1536.25C1135.89 1527.89 1114.94 1518.54 1108.78 1515.84C1096.21 1509.93 1005.51 1471.31 920.227 1435.14C889.172 1422.1 857.623 1408.57 850.476 1405.37C826.568 1394.55 748.683 1362.57 746.465 1362.57C744.986 1362.57 744 1345.1 744 1318.28V1274H752.38C756.817 1274 769.386 1277.94 779.985 1282.86C798.224 1291.22 900.263 1335.5 954.733 1358.88C968.289 1364.78 1019.31 1386.18 1068.11 1406.36C1197.01 1460.48 1208.11 1465.16 1210.08 1468.85C1211.06 1470.81 1211.31 1490.25 1210.57 1512.15L1209.09 1552L1200.22 1551.75C1195.04 1551.75 1176.56 1545.36 1155.61 1536.25Z" fill="black"/>
<path d="M1819 1506.52V1464.29L1913.9 1423.78C1966.03 1401.43 2033.15 1373.2 2062.65 1360.67C2118.71 1337.1 2178.21 1311.57 2231.32 1287.75C2250.25 1279.4 2266.23 1274 2271.39 1274H2280L2279.51 1315.99L2278.77 1357.97L2238.94 1376.14C2216.81 1385.96 2117.73 1428.93 2018.4 1471.66C1885.63 1528.62 1835.47 1549 1828.59 1549H1819V1506.52Z" fill="black"/>
<path d="M1188.89 1719.22C1175.34 1712.8 1067.92 1666.1 1009.04 1640.89C947.452 1614.45 822.299 1560.34 804.069 1552.18C799.881 1550.21 795.692 1548.72 794.953 1548.72C794.214 1548.72 788.794 1546.5 782.882 1544.03C777.215 1541.56 766.129 1536.62 758.492 1533.16L744.203 1526.73V1500.05C744.203 1485.47 743.464 1465.95 742.478 1456.8L741 1440H751.101C756.767 1440 767.853 1443.21 777.954 1447.66C787.07 1451.86 818.111 1465.2 846.443 1477.07C875.021 1489.17 922.076 1509.44 951.147 1522.28C1038.61 1560.83 1114.98 1593.94 1159.32 1612.97C1182.48 1622.85 1203.67 1632 1206.87 1633.48C1212.29 1635.95 1212.29 1636.44 1211.8 1678.2L1211.06 1720.46L1202.44 1720.95C1197.76 1721.2 1191.6 1720.46 1188.89 1719.22Z" fill="black"/>
<path d="M1819.48 1680.88C1820.22 1657.98 1821.45 1638.77 1822.43 1637.78C1823.17 1636.8 1843.35 1627.69 1866.99 1617.34C1890.62 1607 1914.5 1596.41 1919.91 1593.95C1940.83 1584.1 2005.58 1556.27 2098.38 1516.87C2128.9 1504.07 2177.64 1482.65 2206.69 1469.59C2238.94 1455.07 2264.29 1445.22 2271.43 1444.48L2283 1443L2282.51 1485.6L2281.77 1527.96L2223.92 1553.81C2170.5 1577.45 2072.04 1620.3 1903.91 1692.7C1858.62 1712.15 1833.26 1722 1827.11 1722H1818L1819.48 1680.88Z" fill="black"/>
<path d="M1187.37 1890.3C1176.28 1883.65 1055.84 1831.14 877.011 1754.73C830.211 1734.77 788.829 1717.02 784.642 1715.29C780.701 1713.57 769.863 1709.13 760.749 1705.43L744 1698.53V1655.64V1613H752.128C759.764 1613 780.947 1621.13 869.621 1658.11C944.255 1689.17 1052.14 1735.75 1170.62 1788.26L1212 1806.5V1850.37V1894H1202.89C1197.71 1894 1190.82 1892.27 1187.37 1890.3Z" fill="black"/>
<path d="M1818 1851.27V1810.55L1827.84 1805.61C1845.31 1796.72 1951.84 1750.57 2086.17 1693.8C2116.68 1680.96 2159.74 1662.45 2182.13 1652.57C2204.52 1642.95 2232.81 1630.36 2245.36 1624.93C2258.89 1619.25 2270.94 1615.55 2274.88 1616.04L2281.77 1616.78L2282.51 1659.49L2283 1701.94L2268.98 1708.36C2261.1 1711.81 2238.71 1721.19 2219.03 1729.59C2185.82 1743.41 2060.1 1796.97 1903.62 1863.86C1856.14 1884.1 1834.98 1892 1827.84 1892H1818V1851.27Z" fill="black"/>
<path d="M236.163 1726.91C218.608 1717.78 213 1706.43 213 1679.79C213 1646.25 224.947 1632.19 255.669 1630.21C279.076 1628.73 292.974 1634.9 302.24 1650.93C308.091 1660.8 308.579 1663.76 307.604 1683.74C306.872 1708.9 303.215 1716.05 287.123 1725.18C275.419 1732.09 247.623 1733.07 236.163 1726.91Z" fill="black"/>
<path d="M2735.21 1727.89C2718.6 1720.25 2712 1707.19 2712 1682.54C2712 1662.34 2717.86 1648.29 2729.35 1639.91C2736.68 1634.74 2740.35 1634 2760.14 1634C2778.96 1634 2783.6 1634.74 2789.22 1639.17C2802.9 1649.28 2806.08 1656.18 2806.81 1678.36C2808.04 1702.26 2803.39 1713.59 2788.73 1723.7C2777.98 1731.09 2747.19 1733.55 2735.21 1727.89Z" fill="black"/>
<path d="M1768 2208.24L1898.3 2154L2306.41 2311.78L2331 2509L2129.4 2489.28L1768 2208.24Z" fill="white"/>
<path d="M1135.18 2157L1278 2228.38L792.888 2541L687 2425.31L714.088 2302.23L1135.18 2157Z" fill="white"/>
</svg>
